/* XPM */
static char *collectable_resized[] = {
/* columns rows colors chars-per-pixel */
"64 64 161 2 ",
"   c None",
".  c #181428",
"X  c #1F1B34",
"o  c #201B31",
"O  c #272024",
"+  c #352C29",
"@  c #3C3234",
"#  c #413424",
"$  c #453825",
"%  c #493E2F",
"&  c #5E4F2F",
"*  c #62532F",
"=  c #6C582A",
"-  c #745F21",
";  c #625230",
":  c #6F5E36",
">  c #605239",
",  c #705D33",
"<  c #766026",
"1  c #746131",
"2  c #796531",
"3  c #746339",
"4  c #856C22",
"5  c #896F22",
"6  c #8D752B",
"7  c #967B27",
"8  c #8B7533",
"9  c #8E7A3E",
"0  c #937B36",
"q  c #927E3D",
"w  c #8E7B42",
"e  c #9B8234",
"r  c #97813A",
"t  c #9B843B",
"y  c #A98923",
"u  c #B69520",
"i  c #BF9C21",
"p  c #BE9C2E",
"a  c #A18632",
"s  c #A58A31",
"d  c #A1893D",
"f  c #AD9134",
"g  c #A6903E",
"h  c #AC933D",
"j  c #B49634",
"k  c #BE9E36",
"l  c #B2963B",
"z  c #B69D3B",
"x  c #BB9D39",
"c  c #BEA23D",
"v  c #D7A107",
"b  c #DEA80A",
"n  c #E7AD03",
"m  c #E2AC0B",
"M  c #E2B109",
"N  c #EBB40B",
"B  c #EFB90D",
"V  c #F1B605",
"C  c #F2B70B",
"Z  c #F4BD0B",
"A  c #F9BF0C",
"S  c #E4AC13",
"D  c #ECB513",
"F  c #E6B118",
"G  c #E9B51C",
"H  c #EFBC1B",
"J  c #F3BC14",
"K  c #F8BF14",
"L  c #F4BD1B",
"P  c #C09D23",
"I  c #C09E2B",
"U  c #CCAB2E",
"Y  c #D3AB22",
"T  c #D1AE2A",
"R  c #DAB226",
"E  c #DDB52B",
"W  c #DFB82F",
"Q  c #C5A434",
"!  c #CEAB35",
"~  c #C4A63E",
"^  c #CCAD3B",
"/  c #D4B135",
"(  c #DBB631",
")  c #DDB935",
"_  c #D4B33C",
"`  c #D8B53A",
"'  c #DDBD3D",
"]  c #E1B623",
"[  c #E5BD24",
"{  c #EBBA23",
"}  c #EEBD2A",
"|  c #F2BF25",
" . c #E1BC34",
".. c #E1BC3A",
"X. c #F6C20D",
"o. c #F9C40E",
"O. c #F7C90E",
"+. c #FCC90E",
"@. c #F7C212",
"#. c #FAC414",
"$. c #FCCA13",
"%. c #F5C21C",
"&. c #FAC61B",
"*. c #F7C818",
"=. c #FDCB1C",
"-. c #FED016",
";. c #FDD11C",
":. c #EAC022",
">. c #EEC12E",
",. c #F5C423",
"<. c #FBC623",
"1. c #F6C926",
"2. c #FCCB23",
"3. c #F4C42A",
"4. c #FAC628",
"5. c #F6CA2B",
"6. c #FDCC2B",
"7. c #FDD325",
"8. c #FDD22B",
"9. c #FED82C",
"0. c #EBC334",
"q. c #EFCC30",
"w. c #E5C33B",
"e. c #EBC439",
"r. c #E6C83F",
"t. c #EECA3C",
"y. c #F6C631",
"u. c #F4CB33",
"i. c #FCCE33",
"p. c #F4CD3B",
"a. c #FBCE3A",
"s. c #F4D034",
"d. c #FED134",
"f. c #FED932",
"g. c #F5D13C",
"h. c #FED23B",
"j. c #FDD93C",
"k. c #938042",
"l. c #9A8641",
"z. c #9E8A42",
"x. c #A58E42",
"c. c #A59142",
"v. c #AD9442",
"b. c #B39B41",
"n. c #C3A842",
"m. c #CAAD41",
"M. c #CDB044",
"N. c #D3B543",
"B. c #D6B943",
"V. c #DCBD41",
"C. c #E0BE40",
"Z. c #E0C342",
"A. c #E9C540",
"S. c #ECCB42",
"D. c #F2CF42",
"F. c #F6D343",
"G. c #FED443",
"H. c #FDD943",
"J. c #FFD54C",
"K. c #FFD752",
"L. c #FFD855",
/* pixels */
"                                                                                                                                ",
"                                                                                                                                ",
"                                              3.| L L K | &.<.<.4.<.&.K | K | | | 3.                                            ",
"                                          ,.1.,.L L K &.K | &.<.<.<.<.&.&.K | 4.1.1.%.                                          ",
"                                        @.*.;.;.=.&.=.&.4.<.4.<.4.<.<.<.<.<.<.2.7.;.*.X.                                        ",
"                                        X.$.;.-.=.=.<.2.4.4.6.6.6.6.6.6.4.2.6.2.;.;.$.O.                                        ",
"                                        Z O.$.=.=.<.<.2.6.6.d.i.i.6.i.6.6.6.2.2.=.=.+.X.                                        ",
"                                        Z X.+.$.=.=.2.6.6.d.d.d.d.d.i.6.6.2.<.=.#.$.X.X.                                        ",
"                                        Z X.$.#.&.&.<.4.6.i.i.i.i.i.i.6.4.<.<.&.@.$.A Z                                         ",
"                                        K @.#.#.&.&.%.<.4.4.4.4.6.4.4.4.<.<.&.&.#.$.A K                                         ",
"                                    2.=.#.K #.#.&.L L <.<.<.4.4.4.4.4.4.<.L &.#.#.#.@.@.&.<.                                    ",
"                              6.7.7.7.;.=.=.&.&.=.<.<.<.4.4.4.4.4.4.4.4.,.<.<.=.&.=.#.=.=.7.8.d.h.                              ",
"                          s.d.8.9.;.;.;.;.=.=.=.2.2.6.6.6.i.i.i.6.i.6.i.6.6.6.6.4.2.=.2.7.7.9.9.j.j.h.                          ",
"                        g.d.8.7.7.7.9.;.7.=.2.2.2.6.6.6.d.d.i.a.i.a.h.i.i.i.6.i.6.6.6.7.7.7.9.9.f.h.h.g.                        ",
"                    h.h.f.7.7.=.=.=.;.;.2.2.6.7.8.6.d.d.h.h.h.h.G.h.h.h.h.h.d.d.d.6.d.i.9.d.8.d.d.d.f.f.s.1.                    ",
"                    g.f.7.7.=.$.=.=.2.2.2.6.6.6.d.d.h.h.h.h.J.J.G.J.J.G.h.G.h.h.h.h.h.d.h.d.a.i.a.d.d.9.7.2.                    ",
"                  a.8.7.=.$.#.=.=.<.2.6.6.i.d.d.h.h.h.G.G.J.J.J.J.J.J.J.J.J.G.G.G.G.G.G.G.G.a.G.a.i.d.7.-.-.*.                  ",
"                y.6.7.;.$.O.@.&.=.2.4.6.6.6.i.d.h.h.G.J.J.J.K.K.L.K.K.K.J.J.J.J.J.G.G.G.G.G.G.a.a.y.4.=.-.+.$.@.                ",
"                4.<.$.+.O.o.@.#.=.=.<.2.6.6.i.d.h.h.G.J.J.J.K.L.L.L.L.L.L.K.K.J.J.J.J.G.G.G.a.a.i.4.&.#.+.+.+.+.                ",
"                =.=.+.o.X.X.@.#.#.#.=.=.2.6.6.6.d.h.h.G.J.J.J.K.L.L.K.K.K.J.J.G.G.G.G.a.a.y.i.6.<.&.@.@.o.+.O.O.                ",
"                =.=.+.o.o.@.$.#.#.=.=.=.=.=.6.2.8.6.d.d.h.h.G.G.G.J.G.G.G.G.h.h.i.i.i.6.2.2.2.=.=.&.@.@.@.$.=.-.*.              ",
"                -.$.+.o.o.@.@.$.#.#.#.$.$.=.=.=.2.6.6.d.i.h.a.h.G.a.G.a.h.d.i.d.6.6.2.2.2.=.<.<.&.#.#.@.#.*.;.;.*.              ",
"                =.=.@.o.K o.@.#.#.=.=.=.=.=.2.2.2.7.6.d.i.h.h.h.h.h.i.d.d.6.8.6.8.6.6.2.6.6.6.4.<.<.*.#.=.2.7.7.2.              ",
"                =.=.+.o.@.A @.#.#.#.=.=.=.=.2.2.6.6.6.i.i.d.i.a.d.h.i.h.i.d.i.d.6.6.6.6.8.6.6.6.4.<.&.&.=.1.7.7.2.              ",
"                =.=.+.+.@.@.@.$.&.&.=.=.=.2.6.2.6.6.i.h.h.h.h.G.G.h.a.a.h.h.a.i.d.d.d.i.i.i.i.i.5.&.%.#.&.1.7.7.2.              ",
"                =.=.+.+.o.o.@.@.#.=.&.=.2.=.2.6.7.8.d.d.h.h.G.G.G.G.G.G.G.h.h.h.h.d.d.i.i.d.i.6.5.1.&.*.1.7.7.7.2.              ",
"                =.$.@.+.o.@.@.#.#.=.=.=.2.2.2.7.8.f.d.h.h.a.h.G.G.G.G.a.h.j.h.j.d.d.d.d.i.i.i.i.6.=.&.&.*.2.7.7.2.              ",
"                =.=.+.X.@.@.$.#.#.&.=.<.=.2.2.7.6.8.f.d.h.h.G.G.G.G.G.G.H.h.h.h.d.d.d.d.d.i.i.6.<.<.&.*.&.2.7.7.2.              ",
"                =.=.+.o.X.@.@.#.#.=.=.=.2.2.6.1.>.>.u.u.h.h.G.G.G.G.G.h.h.p.e.e.u.d.8.d.d.a.i.6.5.<.&.#.1.2.7.7.2.              ",
"                =.-.+.o.o.@.@.#.#.&.=.<.=.<.:.R p p ! ) p.G.G.h.G.G.G.F.w._ x k / 0.u.s.6.d.i.i.6.=.&.&.&.2.7.7.1.              ",
"                7.=.+.o.A @.@.#.&.&.=.=.2.,.Y y < = 6 j ' G.G.G.G.G.G.A.~ r , , e Q 0.d.d.d.i.6.<.1.&.*.&.1.7.7.7.              ",
"                =.=.+.o.@.@.@.#.#.=.=.=.;.:.i 4 # + & 0 / p.G.G.G.G.F.V.h 3 @ @ 1 f ) d.d.d.s.6.5.&.%.*.=.1.7.7.2.              ",
"                =.=.$.o.o.@.#.#.#.&.=.=.7.[ u - O . % 8 ^ D.h.G.G.H.G.' t > o o * s ( d.d.d.i.6.4.<.*.&.&.1.7.7.1.              ",
"                =.$.+.o.o.@.#.#.#.&.=.2.=.:.P 5 $ + ; e _ p.G.G.G.G.F.V.l 3 % @ 2 j  .s.d.d.i.y.4.<.&.#.&.7.7.7.7.              ",
"                2.=.+.o.@.@.$.#.&.=.=.=.2.,.] i 7 6 s Q ..h.G.G.G.G.G.t._ l 9 0 j / u.d.d.i.i.i.<.1.&.#.&.1.7.8.1.              ",
"                -.=.+.o.o.@.@.#.#.=.=.=.;.2.1.[ U ! ( w.a.G.G.G.G.G.G.G.A.' ^ ^  .0.a.d.i.i.i.i.5.1.#.&.=.1.7.7.2.              ",
"                =.=.+.o.X.@.@.$.#.=.=.=.2.2.6.2.5.q.s.g.j.G.G.G.G.G.G.H.G.g.g.g.s.d.h.d.a.i.i.6.6.<.&.#.&.1.7.7.2.              ",
"                ;.=.+.o.o.@.@.*.&.=.&.=.=.2.2.7.7.f.f.f.j.j.j.G.H.G.H.H.j.H.j.j.h.d.d.d.i.i.i.i.4.=.#.&.&.2.7.7.1.              ",
"                =.$.+.o.X.@.#.#.&.&.=.<.2.2.6.7.5.u.p.g.j.j.H.H.H.H.H.F.F.g.g.u.g.d.h.i.d.i.i.i.5.<.*.#.&.2.7.7.7.              ",
"                ;.=.+.o.+.@.#.#.&.&.=.=.=.2.7.5.>.E / / Z.r.t.D.F.S.A.Z._ _ ' w.a.d.d.h.i.i.i.i.5.2.#.&.1.2.7.7.2.              ",
"                =.=.+.o.o.o.#.#.#.=.=.=.<.2.6.1.E p s t l c M.M.N.M.n.b.z.d x / p.h.d.d.a.i.i.i.5.&.#.%.=.=.7.7.5.              ",
"                =.=.$.o.o.@.#.#.&.=.=.<.2.2.7.1.E p e 8 t t c.c.v.v.x.l.w r x / t.d.h.d.i.i.i.i.5.1.&.#.&.6.7.8.7.              ",
"                =.$.+.o.o.@.@.#.&.&.=.=.=.2.6.5.>.( Q f t r 9 w w w w z.h x _ e.a.d.d.i.i.i.i.i.6.=.#.&.&.2.7.8.2.              ",
"                =.$.+.o.o.K @.#.#.=.=.<.2.2.6.7.6.u. .! c g l.l.z.z.c.b.m.' t.h.h.h.a.d.a.i.i.i.5.<.&.&.=.1.7.7.5.              ",
"                @.+.+.o.o.K #.#.&.=.=.=.2.2.6.7.i.d.u.t.Z.V.B.N.N.B.V.Z.S.g.j.h.d.d.h.i.i.d.i.i.6.<.&.#.*.=.7.7.                ",
"                @.+.+.+.o.o.#.#.&.&.=.=.2.2.6.6.8.d.f.j.j.j.F.F.F.F.F.H.H.H.j.h.h.h.i.h.a.i.i.i.6.=.&.#.*.=.2.2.                ",
"                %.@.$.+.+.o.#.#.#.&.=.2.=.2.2.8.8.d.d.h.h.j.J.G.J.H.H.H.j.H.h.h.d.h.i.i.i.a.i.i.6.&.@.+.$.-.2.4.                ",
"                  =.-.=.+.+.#.K &.=.=.2.2.2.6.6.6.d.d.h.h.F.G.G.H.H.J.J.G.h.h.h.h.i.h.i.d.i.i.i.4.2.$.+.-.;.5.y.                ",
"                  4.5.7.-.-.$.$.=.=.=.=.2.2.6.6.6.6.d.h.a.G.G.G.J.G.G.G.G.h.G.h.h.a.d.a.a.i.i.i.6.=.=.-.7.8.d.                  ",
"                    5.7.;.-.=.#.$.=.=.<.=.6.6.7.8.d.d.a.h.G.G.G.G.G.G.G.G.G.h.h.h.d.h.d.d.a.d.i.6.6.-.-.8.d.                    ",
"                      u.2.7.-.-.-.=.=.2.2.6.6.6.6.d.h.h.G.G.G.G.J.G.G.G.G.G.h.h.h.d.h.d.d.d.d.d.8.7.7.5.s.                      ",
"                        6.5.-.-.=.=.=.=.2.2.7.6.8.i.d.h.h.h.G.J.G.G.J.G.G.h.h.h.h.d.d.d.i.6.6.6.7.7.8.6.                        ",
"                            =.*.#.&.=.=.=.<.2.2.6.d.d.h.h.h.h.G.G.G.G.G.h.h.h.d.i.6.6.6.4.2.=.<.5.1.                            ",
"                                J K K #.*.=.=.2.2.6.6.d.i.h.h.h.a.a.a.a.d.6.6.6.2.2.<.=.&.&.K J H                               ",
"                                N C A #.#.#.&.%.&.<.4.4.6.y.i.y.i.y.6.4.5.6.<.<.&.%.%.K A A V V                                 ",
"                                  C A o.o.L %.&.&.2.2.6.6.6.6.i.6.i.i.6.6.5.<.=.&.@.K o.o.A V n                                 ",
"                                v N O.O.$.$.=.=.7.2.6.8.8.d.d.d.d.f.9.d.8.8.5.7.;.=.*.$.$.+.Z m                                 ",
"                                  M X.O.@.#.&.&.=.2.8.8.8.8.f.f.d.d.d.d.8.7.7.2.<.&.*.#.@.o.B m                                 ",
"                                    M N B J J H %.,.<.5.5.y.u.a.i.y.i.5.3.3.,.,.L L J D B N b                                   ",
"                                          S S F F { { { } >.} 3.>.>.>.} } { { G G F S m                                         ",
"                                                                                                                                ",
"                                                                                                                                ",
"                                                                                                                                ",
"                                                                                                                                "
};
