/* XPM */
static char *enemy_resized[] = {
/* columns rows colors chars-per-pixel */
"63 64 249 2 ",
"   c None",
".  c #020304",
"X  c #0C0101",
"o  c #090A07",
"O  c #130200",
"+  c #1B0201",
"@  c #1A0C04",
"#  c #0D120B",
"$  c #1A130B",
"%  c #191915",
"&  c #0F1611",
"*  c #230B04",
"=  c #270704",
"-  c #330201",
";  c #3C0200",
":  c #370A04",
">  c #281307",
",  c #371607",
"<  c #231A15",
"1  c #271B17",
"2  c #351B17",
"3  c #29231C",
"4  c #342619",
"5  c #3B3817",
"6  c #162628",
"7  c #16292E",
"8  c #292B26",
"9  c #372C25",
"0  c #39332A",
"q  c #273638",
"w  c #373935",
"e  c #253030",
"r  c #19201F",
"t  c #430201",
"y  c #4B0201",
"u  c #470807",
"i  c #530101",
"p  c #5C0101",
"a  c #5B0B08",
"s  c #57130B",
"d  c #471914",
"f  c #591A15",
"g  c #481D04",
"h  c #640101",
"j  c #6B0101",
"k  c #66090B",
"l  c #740101",
"z  c #7C0101",
"x  c #7A0B0A",
"c  c #681914",
"v  c #791713",
"b  c #71110A",
"n  c #44251A",
"m  c #453716",
"M  c #50250D",
"N  c #6C2F11",
"B  c #443C33",
"V  c #4F302B",
"C  c #71302D",
"Z  c #3B423D",
"A  c #594A19",
"S  c #6E451E",
"D  c #46433C",
"F  c #58473B",
"G  c #595324",
"H  c #6C552B",
"J  c #77692A",
"K  c #766E36",
"L  c #747432",
"P  c #70611F",
"I  c #1B3A44",
"U  c #7F3C42",
"Y  c #2B444A",
"T  c #374547",
"R  c #3B5358",
"E  c #324C53",
"W  c #345763",
"Q  c #465959",
"!  c #565652",
"~  c #4F4D46",
"^  c #68544E",
"/  c #77775C",
"(  c #6C6551",
")  c #476568",
"_  c #4F6B70",
"`  c #6B7477",
"'  c #787C78",
"]  c #706C69",
"[  c #535F5A",
"{  c #830201",
"}  c #8C0101",
"|  c #850A0B",
" . c #930201",
".. c #9C0202",
"X. c #990A08",
"o. c #88120B",
"O. c #99120E",
"+. c #970D11",
"@. c #8B1514",
"#. c #961816",
"$. c #820C11",
"%. c #A50302",
"&. c #AB0202",
"*. c #A20B0B",
"=. c #A80B0A",
"-. c #B40101",
";. c #BB0101",
":. c #B90B0A",
">. c #A7110E",
",. c #B9120E",
"<. c #B50E13",
"1. c #A71614",
"2. c #BB1213",
"3. c #B51319",
"4. c #AF0E13",
"5. c #8F2911",
"6. c #8A2B27",
"7. c #90332D",
"8. c #B52626",
"9. c #B73C39",
"0. c #AD2E2A",
"q. c #BA2020",
"w. c #C30403",
"e. c #CB0302",
"r. c #CC0905",
"t. c #CC0B0B",
"y. c #C50B09",
"u. c #D40302",
"i. c #D30B0B",
"p. c #DB0B0C",
"a. c #D80705",
"s. c #D30D12",
"d. c #C31212",
"f. c #CC1313",
"g. c #C71715",
"h. c #D51516",
"j. c #CB100D",
"k. c #E10503",
"l. c #E70908",
"z. c #F30604",
"x. c #FE0C0B",
"c. c #FB0607",
"v. c #FA110D",
"b. c #E61918",
"n. c #FC1917",
"m. c #EA0D10",
"M. c #C63618",
"N. c #FB241D",
"B. c #E7291D",
"V. c #DB1821",
"C. c #EB1B29",
"Z. c #C62422",
"A. c #D42524",
"S. c #C43E39",
"D. c #D23535",
"F. c #FD2622",
"G. c #F73B29",
"H. c #F02B2F",
"J. c #884A19",
"K. c #A84A1A",
"L. c #834330",
"P. c #8B7831",
"I. c #AE702B",
"U. c #9D5D29",
"Y. c #FC4A35",
"T. c #EB412B",
"R. c #CC473D",
"E. c #903C45",
"W. c #A83740",
"Q. c #D53642",
"!. c #F83745",
"~. c #EE3E4C",
"^. c #935352",
"/. c #AF444C",
"(. c #84754D",
"). c #B36166",
"_. c #BB5E60",
"`. c #CD434E",
"'. c #F34B56",
"]. c #CD6E71",
"[. c #F26A6F",
"{. c #758474",
"}. c #968536",
"|. c #918C34",
" X c #AA9437",
".X c #A99130",
"XX c #B7A03A",
"oX c #AEA03F",
"OX c #C7AF3E",
"+X c #988945",
"@X c #97914C",
"#X c #A69344",
"$X c #A79756",
"%X c #B29E46",
"&X c #BBA95A",
"*X c #B7A444",
"=X c #938D72",
"-X c #B0A872",
";X c #A79978",
":X c #C7B759",
">X c #CDB74A",
",X c #CBB66B",
"<X c #D89B42",
"1X c #D6C54B",
"2X c #D6CB59",
"3X c #DDD252",
"4X c #E9D456",
"5X c #EAD055",
"6X c #F4E55B",
"7X c #DCCB69",
"8X c #DCD37B",
"9X c #EBDB65",
"0X c #E7D378",
"qX c #F5E569",
"wX c #F2E779",
"eX c #F3EC75",
"rX c #4C7984",
"tX c #667E82",
"yX c #E07E84",
"uX c #5E8B8F",
"iX c #6D8A8D",
"pX c #7BA2AA",
"aX c #789CA0",
"sX c #869696",
"dX c #8B908A",
"fX c #A69D8B",
"gX c #9CA496",
"hX c #ABA497",
"jX c #B7AE8E",
"kX c #9CB0B0",
"lX c #A9ABA6",
"zX c #B3B1A9",
"xX c #F98F8F",
"cX c #C8B7A9",
"vX c #CABDB3",
"bX c #C0AAA0",
"nX c #D9A898",
"mX c #B5C3BD",
"MX c #B9C79B",
"NX c #D2CB94",
"BX c #E7DA91",
"VX c #F7F287",
"CX c #F2EC8D",
"ZX c #CAC1B6",
"AX c #D5C7B8",
"SX c #D4C9AD",
"DX c #F8F6AB",
"FX c #D3D5CF",
"GX c #EFD4C7",
/* pixels */
"                                                                2X9X4X6X6X5X<X&X-XMX                                          ",
"                                                                  %X:X%XI.I.I.I.8XSX                                          ",
"                                                                    ( (.H J.K.I.,X                                            ",
"                                                                      (.K J.I.                                                ",
"                                                                                                                              ",
"                                                                                                                              ",
"                                                                                a.c.x.n.                                      ",
"                                                                              g.i.c.n.x.x.n.                                  ",
"                                                                        :.k.m.v.v.v.n.x.c.m.[.                                ",
"                                                                      u y ;.u.z.c.c.c.c.c.C.xX                                ",
"                                                                  $ > + X  .e.l.F.G.r. .l.x.F.                                ",
"                                                                o # = . . h u.m.G.7.@ o | c.m.C.                              ",
"                                                                o O + % ' f e.s.^.8 . . a m.s.V.~.                            ",
"                                                                  * X $ {.C :.^.FXtXo . k m.s.V.[.                    ~ iXaX  ",
"                                                          cXcXcXcXV O . X { *.( fXD . o +.m.s.C.xX                0 0 w [ iX  ",
"                                                      AXcXcXcXcXvXzX~ X p w.,.B r o . : s.p.V.!.GX                8 8 T Q R tX",
"                                                    AXcXfXfXZXcXvXAXvXU &.w.h.V & . X X.m.s.C.'.GX              0 8 Z R Y R   ",
"                                                CXNXcXcXhX=XhXZXvXZXZX^.} -.j.#.= - | l.p.s.H.[.              3 8 Z Q R _     ",
"                                                5X:XhXAXvXhX=X;XfXdX^.^.a l } %.4.w.l.p.s.s.H.xX            9 3 w R E R       ",
"                                            DXwX5X X] zXGXZXjX;X$X] ^.fXF * : t h  .&.:.<.s.!.xX          2 e w Q W Q         ",
"                                          XX9XeX0X+X! / jX7XVXVXCXCXBXBX^.b o.x k a a j z =.H.          9 < e E E Q           ",
"                                          0XeXqX>XP.^ =X$X>X6XqX9X9XVX-XN } -.-.:.l.g.#.c j *.    Q   4 9 w Q R R             ",
"                                      9XDXDXeXeX2X%X+X0XCXwXqXqX4X5XBX#X6.>.;.%.- ,.i.:.,.1.b V F ~ 9 < e T W Q               ",
"                                    OX4XDXDXeXeXwX>X.X1XwXVXVXVXwXwXCX8XwX0XM.w.i >.e.X.#.6.8.8.f B 9 8 T E R                 ",
"                                    *X9XVXBX&X&XNX%XJ $X,X1X2X2X2X2X7XCXNX&X5.;.j 4.:.C F F ~ 7.N 8 w Z Y Q                   ",
"                                    1X3X3X-X;XNXAXSX-XZXSX X*X%X.XP.@X-X+X5 O j j :.7.F F F ~ ) Q Q ) q I Q                   ",
"                                  >X1XOX2X-XjXSXzXzXAXvXlX(.%X XP.}.$X;XH : X X - 6.C B D ~ Q ) _ ) uX_ I W                   ",
"                                  |.XXOX$X=XzXlXzXvXFXlXdX(.}.}.P.C 7.U.H - O . % B w B D D Q ) pX[ 0 R Y Q                   ",
"                                    P.#X/ sXgXdXzXZXzXsXtX(.F g M i p *.,.t + % B 9 0 w D T R rXFX(.a N                       ",
"                                    S P./ ' dXgXzXzXkXdXtXtXV ; t a i l m.k 1 0 9 9 w w T Y Y aXFXw : N                       ",
"                                  j s m F ( ' hXkXsXtX` tX^ P..XU.N p =.p.s @ $ 3 e q q 7 7 I kXfX@ > s                       ",
"                                  k t = 9 ~ {.mXmXiX` [ ^ P.XX.XI.K.y.p.*.x  ...2 6 6 6 7 7 q bXF > M                         ",
"                                  p ; : B ] iXsXiXaX_ ! J .XI.M.g.i.s.4.+.*.u.k.| r 6 6 6 6 ! [.C ,                           ",
"                                  i u - F ^ ! ] / {.{.J .X.X5.+.,.,.2.3.+.:.k.t.| 7 6 r 8 F /.!.6.s                           ",
"                                  t u ; - = 1 w ! {.|.|. X#XN $.O.,.2.3.+.4.2.+.u e w F E.W.Q.!.6.g                           ",
"                                      + O O + $ G .X|.P.@X|.A a o.=.2.3.+.$.x u 2 V C E.E.E.~.!.C , M                         ",
"                                        o O X @ L |.P P |.L G g x +.4.3.@.u : f s b v 7.E./.'.!.f > g                         ",
"                                            O O P |.G L L G 5 5 c @.+.x u - a c c c v #.W.`.!.'.n @ , N                       ",
"                                            * + 5 +XP |.5 5 4 A G N , = + - u a c v v O.3.Q.!.`.4 $ ,                         ",
"                                            : > @ 5 G @X5 5 A G A 1 * : : a x @.@.x v @.:.V.!.0.3 ~                           ",
"                                  B 0 B V d f s ; - - J +XK J N , - : y z -.d.f.g.1.O.O.>.p.H.f O Y                           ",
"                              4 1 8 3 3 3 9 @.{ h y y - , , : y p + + + l i.f.f.f.f.4.O.1.g.#.* X r rX                        ",
"                            f M d d d d a O.-.} l p y - = - p z h X . X } j.f.f.h.f.d.>.A.R., @ X o E                         ",
"                    Y.Y.Y.Y.T.T.B.b.y.&.u.u.&. .z h t ; - y h z h O X = &.d.j.j.f.f.s.,.A.    * O o 6 rX                      ",
"                  G.T.G.Y.T.G.G.N.a.;.&.w.;.&.} l p ; t t i j l h X X = %.:.d.d.f.f.h.Z.9.    $ O $ % Y                       ",
"                %.%.=.&.-.;.;.w.a.-.;.;.;.-.&.} z p ; t y p j l l + . O %.:.d.d.d.h.p.D.        o $ < r _                     ",
"                }  .} { }  . .%.u.;.-.-.;.-.%. .z h t y i h l l { ; X O } :.2.d.j.p.i.D.        o # < < q uX                  ",
"                  } l i p { z l y.e.-.-.;.;.%. .z h y y p j { { } l ; ; z ,.,.d.t.i.p.D.          o $ < 1 )                   ",
"                  } z i t t ; t X.i.-.;.;.;.%.X.z v a i k b {  .X.*.*.>.,.d.:.y.i.i.r.A.          # # < 2 e rX                ",
"                  } { h i y ; : j r.;.-.;.-.%. .o.).).C c c v o.O.#.#.1.8.Z.y.r.r.i.r.A.            # % 1 2 R                 ",
"                    } z j p y t a &.y.-.-.&... .#.            l l z { }  .%.w.r.r.i.i.A.              & < 2 9 _               ",
"                      } z j p h 9.9.:.;.-.&.%.;.            { l z z z }  ...;.r.r.r.i.s.A.h.A.D.      & % < 2 T uX            ",
"                      { { j l } d.Z. .:.-.&.w.b.              l z z { }  ...;.e.r.r.r.r.r.a.l.B.        & 1 1 4 )             ",
"                        { z { { { z j  .=.-.p.                z z z { }  ...-.w.r.r.r.r.a.a.l.N.        % % 1 < 0 uX          ",
"                          { { z z z z { X.r.H.                z z { { }  ...&.r.y.r.r.r.i.a.z.N.          % < 3 1 Q kX        ",
"                            >.*.X.>.X.*.>.A.                  } } } } ....%.-.;.r.r.r.r.a.k.z.N.            % < 1 9 tX        ",
"                                                                 .O.O.>.4.>.2.d.y.r.r.r.u.k.z.N.                1 3 [ iX      ",
"                                                                  #.#.1.8.8.9.Z.g.y.r.r.a.k.c.F.                              ",
"                                                                    0.0.9.9.S.S.Q.D.Z.r.a.k.z.N.                              ",
"                                                                        _._._.].].yXyX[.p.k.z.N.                              ",
"                                                                        x j x x $.@.#.q.p.k.l.n.                              ",
"                                                                          j j l z {  .&.u.k.k.v.                              ",
"                                                                          z { { } ..%.;.e.k.m.F.                              ",
"                                                                            1.>.4.2.2.f.s.b.                                  "
};
