/* XPM */
static char *_b7d7fb565a445e38383fba80db1edbevFZfRnOwYmvpDmO1[] = {
/* columns rows colors chars-per-pixel */
"58 64 156 2 ",
"   c None",
".  c #000000",
"X  c #080406",
"o  c #05040B",
"O  c #0B0609",
"+  c #0E090C",
"@  c #130000",
"#  c #1A0000",
"$  c #11050D",
"%  c #110A0E",
"&  c #0D0212",
"*  c #040A12",
"=  c #0F0D11",
"-  c #140514",
";  c #1D0010",
":  c #150C12",
">  c #190E15",
",  c #160E1E",
"<  c #1B0D1A",
"1  c #171216",
"2  c #1B1117",
"3  c #151318",
"4  c #1E131A",
"5  c #1C1A1C",
"6  c #230000",
"7  c #22151D",
"8  c #23181E",
"9  c #1B1E21",
"0  c #251621",
"q  c #291724",
"w  c #251C22",
"e  c #2A1C24",
"r  c #2F1D28",
"t  c #311F27",
"y  c #311F2A",
"u  c #371E32",
"i  c #252426",
"p  c #2C2027",
"a  c #2D232A",
"s  c #2A2A2E",
"d  c #34232C",
"f  c #38252F",
"g  c #34282F",
"h  c #392631",
"j  c #362931",
"k  c #3C2B34",
"l  c #3E2F38",
"z  c #3D313A",
"x  c #422D36",
"c  c #422E39",
"v  c #44333C",
"b  c #48343F",
"n  c #463741",
"m  c #4A3741",
"M  c #463942",
"N  c #4C3A44",
"B  c #4E3E49",
"V  c #503C46",
"C  c #523E49",
"Z  c #593D48",
"A  c #5F3E51",
"S  c #44424B",
"D  c #4C434C",
"F  c #55424C",
"G  c #59434E",
"H  c #4C4857",
"J  c #564651",
"K  c #5C4651",
"L  c #564852",
"P  c #5D4954",
"I  c #5D4C58",
"U  c #61404F",
"Y  c #624352",
"T  c #614B56",
"R  c #644D59",
"E  c #65515D",
"W  c #69515D",
"Q  c #5D5668",
"!  c #5F5D69",
"~  c #645360",
"^  c #6C5562",
"/  c #655864",
"(  c #6C5965",
")  c #645F6B",
"_  c #6F5C69",
"`  c #725A66",
"'  c #745D6A",
"]  c #6F5F73",
"[  c #75606E",
"{  c #78616D",
"}  c #6B6375",
"|  c #6D6971",
" . c #756371",
".. c #7B6574",
"X. c #716E76",
"o. c #7D6877",
"O. c #77697D",
"+. c #7E6A7A",
"@. c #806C7B",
"#. c #846F80",
"$. c #847284",
"%. c #85758C",
"&. c #8B7689",
"*. c #907B8E",
"=. c #887791",
"-. c #8C7C92",
";. c #86828D",
":. c #8F889E",
">. c #918297",
",. c #95859C",
"<. c #938B9D",
"1. c #96939E",
"2. c #9788A1",
"3. c #9C8FA7",
"4. c #9C8EA8",
"5. c #9995A3",
"6. c #9E96A9",
"7. c #A296AE",
"8. c #A59AAF",
"9. c #A395B1",
"0. c #A699B5",
"q. c #A89CB1",
"w. c #AA9CB8",
"e. c #AAA1B4",
"r. c #ABA9B4",
"t. c #B2AABC",
"y. c #B6ADC5",
"u. c #B8ADCB",
"i. c #B7B2C7",
"p. c #BBB4C5",
"a. c #BDBAC5",
"s. c #B7B2C9",
"d. c #BBB3CA",
"f. c #BFBCCC",
"g. c #C0B7C8",
"h. c #C1BBCA",
"j. c #C5BFD5",
"k. c #C7C4D0",
"l. c #CBC9D3",
"z. c #C9C3D8",
"x. c #CCC5E2",
"c. c #D4CDEA",
"v. c #D8D6E0",
"b. c #DBD9E6",
"n. c #E2DEF5",
"m. c #E4E2ED",
"M. c #E6E3F4",
"N. c #E8E6F1",
"B. c #EDEAF6",
"V. c #E4E1FA",
"C. c #E8E7FA",
"Z. c #EDECFD",
"A. c #F0EEFE",
"S. c #F4F2FF",
"D. c #F9F6FF",
"F. c #FDFBFF",
/* pixels */
"                                          E T T T R R                                                               ",
"                                      P ` W W E W W W R             ^ R T T T R T R                                 ",
"                                    E v 8 b N N N n k d F           K W E T R E R ^ Z                               ",
"                                  T ^ k . . . . . . . q K W R R R F . w g l v k a 0 l R R E                         ",
"                    R R E       T W T F N N z d X . o r J R T T R G . . . . . . . - c ^ E R K J                     ",
"                  R ^ W W W W R R R T R R R R W F a v G T T T P T K C C F N v 4 . < m R R Z f h                     ",
"                R W T T T T R J b L P P T P L C m T R T T T T R R R W R R E E G n F T T T c r h                     ",
"              R W T T T T T R F . O 8 p e e > & h T T T T R Z j F G K K K G N v T R P R V f T R ~ R W R R R R       ",
"              R T T T T T P R F . . . . . . . - k P R T T R F . . X 1 > > X . r K T T P h m R R R T T T T R Z       ",
"          J W T T T T T T T T K w . . . . . . 7 N T T T T R F . . . . . . . & d P R R N f T R R T T T T R T c       ",
"          W T T T T T K K T R R T F N b N N F K R T R T T T P g . . . . . . 7 b P R K f V R R T T T T T R F y       ",
"        T T T T T T G 8 8 p p d j v v N N B C F F G K K K T T R K C B B C G T R R R b h K T T T T T T T T c c       ",
"      W W R R R T T K 4 . . . . . . . . . . . . . . + 1 1 8 p p k k v b N N B B F F f N T K T T T T T R G f m C K V ",
"    b N N N V F V m V 2 . X X + + + + + + + O X . . . . . . . . . . . . . . . . . X x G K T T T T T T R m y y f k h ",
"  N 2 . . . . . O $ 8 O . . . . . . . . . . . . . . . . . X X + + + % % + + O O . : V T K T T T T T T K h d < q y f ",
"f f > . X X . X . 7 L G F F F F D N k k j d p w 4 > % . . . . . . . . . . . . . . 4 m V C T T R T R R N y 0 . . > h ",
"> < + . . . X . O F R T ( ( E G G W ` ( R R R R T T K G F F F F B b k k j d p e 8 O - 7 7 4 w a d j k h b v k e O h ",
". . . . . . . . > i d l . . ; / ( # @ c L G K K P T T E ( ^ R Z T ` ( W E R R E G X . . . . . . . . . d N Z K b O k ",
". . . . . . . . . X . . 1.a.v.N.N.l.1.D . 5 2 1 4 w j # . . u [ L . 6 V K F G T v . . X . . X . + . % f u f x d > h ",
". . . . . . . . 3 . . f.F.D.Z.D.F.F.D.B.5.. i . . 9 . S r.l.m.A.m.a.;.3 . i O 2 d O . . . . . . . . O q < 0 t d < k ",
". . . . . . . : . * 6.h.q.,.%.6.j.n.D.D.D.5.. 5 w . ! M.F.D.Z.S.F.F.D.m.X.. s . f $ . . . . . . . . $ 4 . . < f <   ",
". . . . . . o . . 2.>.Y W ` ' W ^ +.t.A.D.D.1.. . } z.p.8.2.%.8.z.M.D.F.B.| . i t O . . . . . . . . : 4 . . : h     ",
"  . . . . . + . ~ $.` +.@.....+.+.' K e.Z.F.S.D H y.$.A ^ ` ` W ^ $.p.S.D.B.| . k X . . . . . . . . % > . . > h     ",
"      . . . . . ^  ...' B d s j D ' +.P e.C.D.5.] $.^ @.@...o.+.+.{ Y t.S.F.b.. d 1 . . . . . . . . : > . . 1 k     ",
"      . . . . 2 ' o.^ 1 . . . . . . I @.Y y.Z.j.Z ..o.` D g g l J  .@.T w.Z.Z.) . i . . . . . . . . : > . . < y     ",
"      . . X . j ..[ 1 . + X X X + . . E ' >.n.s.R @.R . . . . . . + ~ @.U d.Z.<.. s . . . . . . . . % 8 X . > V     ",
"      . . + . B o.J . % . . X X . X . . ( ..x.5.^ _ . . 1 . X + : . . ( ' <.V.s.. 5 o . . . . . . . $ d f f v C R b ",
"      . . + . v o.n . + . . . . X . + . F ' 0.$.' z . : . . o X . : . 1 ` @.c.s.. 5 * . . . . . . . : f f f h h x k ",
"    N . . . . > [ M . % . . k d . . + . z ' 9.-.^ i . X X . . . + . + . I ' u.:.. i . . . . . . . . : f h e < q y h ",
"  h f . . . X . ~ L . : . L ....J . + . j  .w.O.( w . + . . j 4 . X + . N [ 0.Q . w . . . . . . . . : f f > . . q x ",
"  4 0 . . . O . N ( . . 1 [ .. ...g . . p &.%.@ ] w . . X ~ ..[ z . > . v @.4.O t : . . . . . . . . % f c e O . 8 c ",
"  . . . . . . X . J B . . ~ @... .d . . E @.s . ^ J . . z o.[ .._ . O . v *.} . c 8 . . . . . . . . $ x G K K d 7   ",
"  . . . . . . . . . D M . > I ( M . . N _ p . . a E 5 . s  ...o._ % . . _ +.= . k d . . . . . . . . % h x c V e 8   ",
"  . . . . . . . . . . B z + . . . w F E 1 . + + . a L w . v ( ( z . . L _ 8 . + h e . . . . . . . . : d r y h q 8   ",
"  . . . . . . . . . . . 1 8 k z a d z X . + . . + . d F p . . . . w I E . . + . h d . X . . . . . . > 7 O < y y :   ",
"  . . . . . . . . . . X . . % k b l . . O . . . . O . . e p l l d z v . . : . X f d . . . . . . . . > > . . 8 k     ",
"    . . . . . . . . . X . 4 V G L K K v . . . . . . X . . . a b k O . . + . . X h t . . . . . . . . : : . . 8 x     ",
"      . . . . . . . . . O w 4 . . 8 b T v . . . . . . . . v G K T K N O . X . X h p . . . . . . . . : % . . q       ",
"      . . . . . . . . . X . . . . . . v G 2 . X . . . . q a 4 X 8 k K V X . . X h d . . . . . . . . : : . . w       ",
"      . . . . . . . . . . . X . . X . . k d . . . . . X X . . . . . e J d . . X f y . . . . . . . . 4 > . . > K R   ",
"      + . . . . . . . . . . . . . . X . q e . . . . . . . X X . X X . d x . . X f d . . . . . . . . 4 f r q d m V   ",
"      v . X . . . . . . . . . . . . . . % % . . . . . . . . . . . . . + f X . X h e . . . . . . . . 4 h k y y d h   ",
"    m h . . . . . . . . . . . . . . . . . . . . . . . . . . . . . . . X : . . . f t . . . . . . . . 4 h h > O < f   ",
"    f 8 . . . . . . . . . . . . . . . . . . . . . . . . . . . . . . . . . . . X h d . . . . . . . . 4 h d . . . y   ",
"    < > . . . . . . . . . . . . . . . . . . . . . . . . . . . . . . . . . . . X f e . . . . . . . . 4 x c e 4 . y   ",
"    . . . . . . . . . . . . . . . . . . . . . . . . . . . . . . . . . . . . . X h e . X . . . . . . : v K T K 7 e   ",
"    . . . . . . . . . . . . . . . . . . . . . . . . . . . . . . . . . . . . . X h e . . . . . . . . 7 x x b m 7 e   ",
"    . . . . . . . . . . . . . . X X . . . . . . . . . . . . . . . . . . . . . X h e . . . . . . . . 4 t y y f 8 8   ",
"    . . . . . . . . . . . . X . . . . X . . . . . . . . . . . X X . . . . . . . k e . X . . . . . . 7 > & 4 f       ",
"    . . . . . . . . . . . . . . w e . . . . . . . . . . . . X . . . X . . . . X f q . . . . . . . . > % . . r       ",
"        . . . . . . . . . . d J T R F k . . . . . . . . . . . X : . . . . . . X f e . . . . . . . . > O . . y       ",
"        . . . . . . . . . 7 k k a l C K b . . . . . . . . w V K T V a . . X . X h q . . . . . . . . 2 O . . d       ",
"        . . . . . . . . . > . . . . . v K d . X . . . . 4 v N v N G K k . X . X h q . . . . . . . . 7 X . . d       ",
"        . . . . . . . . . . . X X X . . v c . . . . . . 8 . . . . . b K d . . X f e . . . . . . . . 7 2 . . q       ",
"        . . . . . . . . . . . . . . . . > h . . . . . . . . O O X . . v c . . X h e . . . . . . . . q k             ",
"          . . . . O O . . . . . . . . . O 4 . . . . . . . . . . . X . + k O . O h e . . . . . . . . q x             ",
"                    . . . . . . . . . . . . . . . . . . . . . . . . . X 7 X . X h q . . . . . . . . q               ",
"                    . . . . . . . . . . . . . . . . . . . . . . . . . . . . . X f e . . . . . . . . e               ",
"                    . . . . . . . . . . . . . . . . . . . . . . . . . . . X . X f f f f   . . . . . 7               ",
"                    . . . . . . . . . . . . . . . . . . . . . . . . . . . . . O f e h                               ",
"                        . . . . . . . . . . . . . . . . . . . . . . . . . . . : e q h                               ",
"                          . . . . . . . . . . . . . . . . . . . . . . . . . . : : 8 x                               ",
"                                                . . . . . . . . . . . . . . . X . 8                                 ",
"                                                                        . . . . . 4                                 "
};
