/* XPM */
static char *wall2_resized[] = {
/* columns rows colors chars-per-pixel */
"64 64 192 2 ",
"   c None",
".  c #010101",
"X  c #070805",
"o  c #161405",
"O  c #040C17",
"+  c #06101E",
"@  c #171A13",
"#  c #2F131C",
"$  c #39161D",
"%  c #282408",
"&  c #3D370A",
"*  c #051427",
"=  c #061C36",
"-  c #171B2C",
";  c #261928",
":  c #1E2F3E",
">  c #052038",
",  c #47151D",
"<  c #54141C",
"1  c #5F151C",
"2  c #5C0E1B",
"3  c #63151C",
"4  c #6B131B",
"5  c #671C1C",
"6  c #70151C",
"7  c #7B151D",
"8  c #701C1C",
"9  c #433C0B",
"0  c #52291D",
"q  c #7F2D1C",
"w  c #421823",
"e  c #501B2A",
"r  c #4B430E",
"t  c #554D12",
"y  c #6A5E10",
"u  c #675A16",
"i  c #6D6217",
"p  c #726613",
"a  c #7C6B19",
"s  c #776916",
"d  c #615527",
"f  c #092548",
"g  c #0D2B55",
"h  c #0C2E5D",
"j  c #0E305F",
"k  c #07315A",
"l  c #243C51",
"z  c #0D3364",
"x  c #0C376D",
"c  c #0B396D",
"v  c #0E3E7A",
"b  c #0E3974",
"n  c #143D75",
"m  c #1C3666",
"M  c #28455F",
"N  c #09437A",
"B  c #8B151C",
"V  c #83141B",
"C  c #9B151C",
"Z  c #91151C",
"A  c #A3151C",
"S  c #AC151B",
"D  c #AF1E1B",
"F  c #B3151C",
"G  c #BC151C",
"H  c #9B1B2B",
"J  c #C6151C",
"K  c #CC151C",
"L  c #D3151D",
"P  c #DB151C",
"I  c #E3151C",
"U  c #ED151C",
"Y  c #F4151C",
"T  c #FC161D",
"R  c #CD231E",
"E  c #C91921",
"W  c #C31922",
"Q  c #D71B24",
"!  c #E51C24",
"~  c #F41C23",
"^  c #F91C23",
"/  c #DE2027",
"(  c #F72229",
")  c #854C1C",
"_  c #98691D",
"`  c #857319",
"'  c #897917",
"]  c #947A1A",
"[  c #D6471C",
"{  c #EC621C",
"}  c #D47722",
"|  c #928315",
" . c #9A851A",
".. c #9D8A19",
"X. c #97851B",
"o. c #A28D1B",
"O. c #A8891A",
"+. c #A4921A",
"@. c #AB951A",
"#. c #AD991A",
"$. c #A89617",
"%. c #B39D1A",
"&. c #BD9E1A",
"*. c #B7941C",
"=. c #B7A11A",
"-. c #BBA31A",
";. c #BEA81A",
":. c #BEAC20",
">. c #C4AC1A",
",. c #CAAC1B",
"<. c #C4A51A",
"1. c #C6B01B",
"2. c #CCB419",
"3. c #CEB91B",
"4. c #D3BD1A",
"5. c #DABD1A",
"6. c #D3B51D",
"7. c #D1AA1E",
"8. c #CDBB22",
"9. c #F0BB20",
"0. c #D6C11A",
"q. c #DBC31A",
"w. c #DECA1B",
"e. c #E1C51B",
"r. c #E2CC1B",
"t. c #E9CF1A",
"y. c #E5D31C",
"u. c #EAD51B",
"i. c #EDDB1C",
"p. c #E7D81E",
"a. c #F1DD1C",
"s. c #F4E41C",
"d. c #F6E91C",
"f. c #F9EC1C",
"g. c #FDF21E",
"h. c #EEE31C",
"j. c #D1C226",
"k. c #EEDC20",
"l. c #F3E622",
"z. c #F8EE20",
"x. c #F7EA21",
"c. c #FCF220",
"v. c #0D3F83",
"b. c #0E4082",
"n. c #0C4B89",
"m. c #154485",
"M. c #0E4B94",
"N. c #0E4C9B",
"B. c #0D529F",
"V. c #17519D",
"C. c #0E53A4",
"Z. c #0E56AB",
"A. c #0D5DAA",
"S. c #0E5DB5",
"D. c #0E5FB9",
"F. c #175DAD",
"G. c #0E64B5",
"H. c #0F63BD",
"J. c #0E6BB4",
"K. c #0D60AA",
"L. c #236AB8",
"P. c #0E65C2",
"I. c #0E6AC4",
"U. c #0F6CCC",
"Y. c #0F73CD",
"T. c #1172C9",
"R. c #0F75D5",
"E. c #0F7CD6",
"W. c #0F77D8",
"Q. c #0E7BDB",
"!. c #117AD4",
"~. c #287CC0",
"^. c #0E7FE0",
"/. c #1184DD",
"(. c #0E82E2",
"). c #0E8CE9",
"_. c #0F89E6",
"`. c #0F93ED",
"'. c #0F93E4",
"]. c #0F9DF3",
"[. c #109BF1",
"{. c #11B3ED",
"}. c #0FA3F4",
"|. c #0FAAF7",
" X c #0FACF9",
".X c #10A9F5",
"XX c #0FB3FA",
"oX c #0FBCFD",
"OX c #12B6F3",
"+X c #10B3FA",
"@X c #10BDFC",
"#X c #12BBF7",
/* pixels */
"                                                                                                                                ",
"                                                                                                                                ",
"                                                                                                                                ",
"                                                                                                                                ",
"                                                                                                                                ",
"                                                                                                                                ",
"                                                                                                                                ",
"                                                                                                                                ",
"                                                                                                                                ",
"                                                                                                                                ",
"                                                                                                                                ",
"                                            ( ^ ( (                                                                             ",
"                              ^ ~ (       ^ ^ T ^ ^ !                                                                           ",
"                            T ^ T T ^     E I ! P K E                                                                           ",
"                          / U Y ~ I E E Q B A F K I U ^                                     {.{.                                ",
"                        ~ ! E K J K L P E 7 8 J T T T T T               OX#X#X#X@X#X@X@X@X@X@X@X@XOX                            ",
"                      ~ Y I J E Y T T T T L C G U Y Y Y P G             XX@XoXoX@X@X@X@X@X@XoXoX@X@X                            ",
"                      / Y ! L P T T T Y Y P K A F K L J F J           T.].@XoXoX@X@X@X@X@XoXoXoX@X@X@X                          ",
"                        I T U P P I I P K S G B Z G G F C G I         !._.XXoXoX@X@X@X@X@X@XoXoX@X@X@X{.                        ",
"                        Q Y Y P J J J J F C F F A S F S S L U P L.XX X]./.}.oXoX@X@X@X@X@X@XoXoX@X@X@X@X                        ",
"                        K U Y P K G G F S S L I I I P P I P J H L. X|.[.Q.).XXoX@X@X@X@XoXoXoXoX@X@X@X@X@X                      ",
"                        E L Y Y I P K K L I U U I P K G A B 6 e L.[.).(.U.E.}.oX@X@X@X@XoXoXoXoX@X@X@X@X@XOX                    ",
"                        E K I T Y Y U I P K G S A C B 7 4 3 < w V.W.U.S.B.H.`.oX@X@X@X@XoXoXoXoX@X@X@X@X@X@XOX                  ",
"                        W K [ { { R S C Z V V V 7 7 4 3 1 1 < w m.S.G.J.J.Y.(.XXoX@X@X@XoXoXoXoX@X@X@X@XoXoXoX                  ",
"                        } 9.x.c.f.f.2.V 4 6 4 4 8 8 1 < 1 < , $ m N.'.+X+X].^.[.oXoXoXoXoXoXoXoXoXoXoXoXXXOX+X}.                ",
"                        z.c.c.c.g.g.g.] 2 1 ) *.8.5.7.] 0 , $ $ - c E. X X[.^.^.|.XX XXX X|.|.}.].].[.`.`.`.)./.                ",
"                        x.c.c.c.g.g.u.O.) _ k.c.c.c.c.c.:.w $ ; n M.I.}.].`.W.R.(.`.).).).).).(.(.(.(.(.(.Q.(.                  ",
"                      j.8.w.h.l.i.0.$.o.e.s.g.c.c.c.c.c.k.0 # ; b.B.D.`.`.(.U.P.R.^.^.^.Q.^.Q.^.Q.Q.^.Q.^.Q.Q.                  ",
"                      k.>.o...#.#.O.` a 7.6.h.c.c.c.c.f.0.%. .d b N.Z.^.^.R.D.S.R.Q.Q.Q.Q.Q.Q.(.Q.(.Q.Q.^.Q.!.                  ",
"                  l.z.f.h.k.+.s ` ` u ` &.O.=.3.r.y.r.4.1.e.k.8.M v.N.P.U.S.M.Z.R.Q.Q.Q.Q.Q.Q.Q.Q.Q.Q.Q.Q.Q.T.                  ",
"                c.c.g.g.c.g.h.` u a ] -.2.=.@... .@.;.1.;.8.k.1.l g j v b x h N.R.Q.Q.Q.Q.Q.Q.Q.Q.Q.Q.Q.Q.Q.                    ",
"              z.c.f.g.g.g.g.f.=.O.<.q.s.z.f.f.h.3...@.;.>.e.a.o.: j v.b j g g C.R.Q.Q.Q.Q.Q.Q.Q.Q.Q.Q.Q.Q.!.                    ",
"              s.f.g.g.f.f.d.5.O.>.w.f.g.g.f.g.g.c.0.@.,.5.u.w.| @ g Z.Z.M.v z C.R.W.Q.Q.Q.Q.Q.Q.Q.W.Q.Q.Q.T.                    ",
"              r.i.s.d.s.u.4...' -.i.g.g.g.g.g.g.g.u.6.e.k.l.1.` o f Z.U.D.C.b C.R.W.W.W.Q.Q.Q.Q.Q.Q.Q.Q./.K.                    ",
"            a.q.4.0.q.4.4.=.' y %.5.f.f.g.f.f.g.d.4.5.t.a.u.%.a X = V.R.U.S.v.Z.R.R.W.W.W.Q.Q.Q.Q.Q.Q.Q.Q.N                     ",
"          l.i.q.4.4.4.5.2.$.' ] &.<.w.s.f.f.d.i.0.>.5.a.s.4.@.s X * m.R.U.S.v.S.R.W.W.W.Q.W.W.Q.Q.Q.W.^.Y.>                     ",
"        f.d.a.t.4.4.4.4.>.=.%.<.2.&.2.5.q.q.q.4.3.>.5.a.i.;.+.s X * v H.D.N.b S.R.R.!.!.W.W.W.Q.Q.Q.E.Q.G.                      ",
"      l.f.f.d.a.t.t.q.q.5.5.e.e.5.<.2.2.4.5.4.4.3.2.t.s.q.=.+.i . X f x h g z D.R.R.R.R.W.W.Q.Q.W.Q.Q.Q.n.                      ",
"      y.h.d.f.f.f.d.s.a.a.a.i.u.t.e.2.4.4.5.4.4.4.e.a.a.2.=.o.i . . . . . + z P.R.R.W.W.W.Q.W.W.Q.Q.Q.!.k                       ",
"        0.q.t.t.u.s.s.f.f.f.f.d.s.u.t.e.q.5.q.e.t.a.s.r.-.#.o.y . . . . . X x I.R.R.R.W.W.W.R.R.Y.U.I.A.                        ",
"        4.4.4.4.0.q.q.t.u.i.s.d.f.f.f.s.s.a.a.a.s.f.s.2.=.$.o.t . . . . . . z H.H.G.A.B.M.N c k f = *                           ",
"        3.4.4.4.4.4.0.0.0.0.q.w.t.t.a.s.f.f.f.f.f.f.t.;.%.%.X.% .           O f = + O . . . . . .                               ",
"        1.4.4.4.2.0.4.4.4.4.4.4.0.q.q.q.t.t.i.a.s.h.4.=.%.$.` X                                                                 ",
"          8.4.4.4.4.4.4.4.4.4.4.4.4.4.4.0.0.q.q.q.5.>.=.%.$.r                                                                   ",
"          3.4.4.4.4.4.4.4.4.4.4.4.4.2.4.4.4.4.4.4.4.>.=.%.X.o                                                                   ",
"          >.0.4.4.4.4.4.4.2.4.4.4.4.0.4.4.4.4.4.4.4.>.=.%.s                                                                     ",
"          #.8.4.4.4.0.4.4.4.4.4.4.4.4.4.4.4.4.4.4.4.>.=.@.&                                                                     ",
"          | 8.4.4.4.4.4.4.4.4.4.0.2.4.0.2.4.4.4.4.4.>.=.|                                                                       ",
"            2.4.4.8.0.4.4.3.0.8.4.4.4.4.4.4.4.4.0.4.>.=.u                                                                       ",
"            s +.-.1.6.4.0.4.4.4.4.4.4.4.4.4.4.4.4.4.>.+.%                                                                       ",
"                  r p | %.1.3.4.0.4.4.4.4.4.4.4.4.4.>.a                                                                         ",
"                          & i | #.>.3.4.6.4.4.4.0.0.;.r                                                                         ",
"                                  & y | #.>.3.4.4.0.$.                                                                          ",
"                                          & y | =.;.p                                                                           ",
"                                                                                                                                ",
"                                                                                                                                ",
"                                                                                                                                ",
"                                                                                                                                ",
"                                                                                                                                ",
"                                                                                                                                ",
"                                                                                                                                ",
"                                                                                                                                ",
"                                                                                                                                ",
"                                                                                                                                "
};
